<?xml version="1.0" standalone="no"?><!DOCTYPE svg PUBLIC "-//W3C//DTD SVG 1.1//EN" "http://www.w3.org/Graphics/SVG/1.1/DTD/svg11.dtd"><svg t="1581488220807" class="icon" viewBox="0 0 1024 1024" version="1.1" xmlns="http://www.w3.org/2000/svg" p-id="836" width="32" height="32" xmlns:xlink="http://www.w3.org/1999/xlink"><defs><style type="text/css"></style></defs><path d="M307.2 170.666667h409.6a136.533333 136.533333 0 0 1 136.533333 136.533333v409.6a136.533333 136.533333 0 0 1-136.533333 136.533333H307.2a136.533333 136.533333 0 0 1-136.533333-136.533333V307.2a136.533333 136.533333 0 0 1 136.533333-136.533333z m0 51.2A85.333333 85.333333 0 0 0 221.866667 307.2v409.6A85.333333 85.333333 0 0 0 307.2 802.133333h409.6a85.333333 85.333333 0 0 0 85.333333-85.333333V307.2A85.333333 85.333333 0 0 0 716.8 221.866667H307.2zM341.333333 307.2h102.4a34.133333 34.133333 0 0 1 34.133334 34.133333v102.4a34.133333 34.133333 0 0 1-34.133334 34.133334h-102.4a34.133333 34.133333 0 0 1-34.133333-34.133334v-102.4a34.133333 34.133333 0 0 1 34.133333-34.133333z m17.066667 51.2v68.266667h68.266667v-68.266667h-68.266667z m179.2 0a25.6 25.6 0 1 1 0-51.2h170.666667a25.6 25.6 0 1 1 0 51.2h-170.666667z m-204.8 238.933333a25.6 25.6 0 1 1 0-51.2h375.466667a25.6 25.6 0 1 1 0 51.2h-375.466667z m204.8-119.466666a25.6 25.6 0 1 1 0-51.2h170.666667a25.6 25.6 0 1 1 0 51.2h-170.666667z m-204.8 221.866666a25.6 25.6 0 1 1 0-51.2h375.466667a25.6 25.6 0 1 1 0 51.2h-375.466667z" fill="currentColor" p-id="837"></path></svg>
