<?xml version="1.0" standalone="no"?><!DOCTYPE svg PUBLIC "-//W3C//DTD SVG 1.1//EN" "http://www.w3.org/Graphics/SVG/1.1/DTD/svg11.dtd"><svg t="1581488726591" class="icon" viewBox="0 0 1024 1024" version="1.1" xmlns="http://www.w3.org/2000/svg" p-id="4007" xmlns:xlink="http://www.w3.org/1999/xlink" width="32" height="32"><defs><style type="text/css"></style></defs><path d="M448 170.666667H213.333333c-23.466667 0-42.666667 19.2-42.666666 42.666666v234.666667c0 23.466667 19.2 42.666667 42.666666 42.666667h234.666667c23.466667 0 42.666667-19.2 42.666667-42.666667V213.333333c0-23.466667-19.2-42.666667-42.666667-42.666666z m0 277.333333H213.333333V213.333333h234.666667v234.666667zM810.666667 170.666667H576c-23.466667 0-42.666667 19.2-42.666667 42.666666v234.666667c0 23.466667 19.2 42.666667 42.666667 42.666667h234.666667c23.466667 0 42.666667-19.2 42.666666-42.666667V213.333333c0-23.466667-19.2-42.666667-42.666666-42.666666z m0 277.333333H576V213.333333h234.666667v234.666667zM448 533.333333H213.333333c-23.466667 0-42.666667 19.2-42.666666 42.666667v234.666667c0 23.466667 19.2 42.666667 42.666666 42.666666h234.666667c23.466667 0 42.666667-19.2 42.666667-42.666666V576c0-23.466667-19.2-42.666667-42.666667-42.666667z m0 277.333334H213.333333V576h234.666667v234.666667zM810.666667 533.333333H576c-23.466667 0-42.666667 19.2-42.666667 42.666667v234.666667c0 23.466667 19.2 42.666667 42.666667 42.666666h234.666667c23.466667 0 42.666667-19.2 42.666666-42.666666V576c0-23.466667-19.2-42.666667-42.666666-42.666667z m0 277.333334H576V576h234.666667v234.666667z" p-id="4008" fill="currentColor"></path></svg>
